PathFileType	4	(X/Y/Z)	Walk4.trc
DataRate	CameraRate	NumFrames	NumMarkers	Units	OrigDataRate	OrigDataStartFrame	OrigNumFrames
200.000000	200.000000	9	61	mm	200.000000	309	476
Frame#	Times		LFHD		RFHD		CLAV		LASI		RASI		RACR1		RUA1		RWRU		RCAR		LACR1		LUA1		LWRU		LCAR		RTH3		RTB1		LTH1		LTH2		LTH4		LLFC		LTB1		LTB2		LTB4		LTH3		LFA1		RTH2		LToe		LTB3		STRN		RTB4		LBHD		RWRR		RTB3		RMT5		RFA1		RMFC		RToe		RTH4		RTH1		RLFC		RMT1		RTB2		LElbow		RMMAL		LWRR		LMFC		T10		RElbow		LPSI		LMT1		RBack		LCAL		RBHD		LMMAL		RPSI		RElbowM		RLMAL		RCAL		C7		LMT5		LElbowM		LLMAL
			X1	Y1	Z1	X2	Y2	Z2	X3	Y3	Z3	X4	Y4	Z4	X5	Y5	Z5	X6	Y6	Z6	X7	Y7	Z7	X8	Y8	Z8	X9	Y9	Z9	X10	Y10	Z10	X11	Y11	Z11	X12	Y12	Z12	X13	Y13	Z13	X14	Y14	Z14	X15	Y15	Z15	X16	Y16	Z16	X17	Y17	Z17	X18	Y18	Z18	X19	Y19	Z19	X20	Y20	Z20	X21	Y21	Z21	X22	Y22	Z22	X23	Y23	Z23	X24	Y24	Z24	X25	Y25	Z25	X26	Y26	Z26	X27	Y27	Z27	X28	Y28	Z28	X29	Y29	Z29	X30	Y30	Z30	X31	Y31	Z31	X32	Y32	Z32	X33	Y33	Z33	X34	Y34	Z34	X35	Y35	Z35	X36	Y36	Z36	X37	Y37	Z37	X38	Y38	Z38	X39	Y39	Z39	X40	Y40	Z40	X41	Y41	Z41	X42	Y42	Z42	X43	Y43	Z43	X44	Y44	Z44	X45	Y45	Z45	X46	Y46	Z46	X47	Y47	Z47	X48	Y48	Z48	X49	Y49	Z49	X50	Y50	Z50	X51	Y51	Z51	X52	Y52	Z52	X53	Y53	Z53	X54	Y54	Z54	X55	Y55	Z55	X56	Y56	Z56	X57	Y57	Z57	X58	Y58	Z58	X59	Y59	Z59	X60	Y60	Z60	X61	Y61	Z61

309	1.545	415.66	1570	-45.318	412.65	1574.4	54.13	393.2	1295.6	11.464	366.11	877.14	-102.13	394.43	899.37	143.81	320.04	1328	177.21	296.27	1162.3	237.85	297.31	752.61	303.64	259.2	693.74	350.67	317.67	1344.8	-137.4	329.15	1176.7	-208.7	574.49	905.46	-213.19	615.48	843.68	-238.07	440.06	583.21	184.72	534.74	349.94	110.8	274.57	717.54	-154.2	306.41	624.98	-124.1	251.52	635.24	-141.45	176.1	423.13	-107.47	142.57	317.06	-43.98	61.956	274.35	-97.236	75.317	263.57	-39.034	230.2	554.51	-125.3	460.19	937.19	-250.02	460.21	686.95	180.72	-12.832	20.229	0.91663	13.325	207.09	-32.495	422.26	1162.1	19.34	541.28	263.64	101.42	277.42	1497.2	-68.898	233.88	762.5	329.54	546.31	178.85	89.094	612.19	28.531	108.08	268.42	879.82	316.65	461.06	438.11	22.804	692.81	49.912	54.386	413.46	660.48	207.72	387.26	740.3	232.46	493.98	450.34	145.76	643.06	46.185	26.191	497.39	256.03	143.18	341.8	1022.8	-247.48	515.49	85.973	21.624	534.1	849.39	-222.92	163.5	419.23	24.438	207.63	1178.3	17.9	260.35	1003.2	274.31	201.98	939.25	-3.2185	-55.663	42.758	22.194	206	1262.5	85.268	-154.76	190.62	-34.677	275.24	1509.2	73.413	-81.644	170.51	5.3586	216.17	939.7	96.116	242.95	992.89	199.05	506.55	61.81	100.91	457.71	33.887	56.653	276.48	1390.6	10.627	-77.697	45.14	-58.315	322.48	992.67	-180.01	-103.43	164.3	-73.58
310	1.55	423.66	1570.2	-44.973	420.77	1574.7	54.474	401.92	1295.7	11.866	374.83	876.61	-101.31	402.8	900.13	144.23	329.1	1327.9	177.73	305.76	1162.2	238.37	307.55	752.47	303.88	269.77	693.52	351.04	326.16	1344.7	-137.03	336.24	1176.3	-208.01	579.54	902.33	-213.25	619.58	840.09	-238.43	448.18	583.8	184.95	541.3	349.27	110.15	284.99	716.27	-153.53	318.17	624.11	-123.61	263.19	633.6	-141.01	190.68	420.71	-107.83	155.15	315.43	-44.436	73.711	274.65	-97.968	86.603	263.58	-39.747	243.14	552.5	-125.23	465.44	935.34	-249.46	468.46	687.51	181.52	-10.366	19.892	0.03356	23.243	208.6	-33.427	431.06	1162.2	19.884	546.33	262.84	100.85	285.6	1497	-68.31	244.25	762.25	330.09	549.76	177.94	88.594	612.97	27.098	108.03	278.47	879.6	317.13	468.01	438.83	23.097	694.14	46.086	53.339	421.52	661	208.08	395.28	740.73	233.03	502.22	450.77	145.6	643.89	43.495	25.453	502.89	256.01	143.23	347.96	1022.3	-246.39	516.75	85.562	21.459	538.44	846.7	-222.64	178.36	416.36	24.13	216.21	1178.5	18.351	269.96	1003.1	274.95	210.46	938.97	-3.6322	-51.382	45.391	20.865	214.78	1262.6	86.007	-144.67	197.23	-36.62	283.58	1509.1	73.991	-72.804	174.35	3.8873	224.46	940.02	95.831	252.3	992.77	199.67	507.97	61.625	100.9	458.23	34.575	56.91	285.17	1390.7	11.251	-72.785	48.563	-59.413	328.93	992.49	-178.8	-94.291	168.8	-75.097
311	1.555	431.65	1570.5	-44.614	428.88	1575	54.832	410.61	1295.9	12.231	383.46	876.18	-100.48	411.08	901	144.67	338.16	1327.9	178.21	315.29	1162.1	238.85	317.95	752.4	304.05	280.55	693.36	351.36	334.65	1344.7	-136.68	343.34	1176.1	-207.32	584.32	899.06	-213.32	623.32	836.35	-238.81	456.11	584.37	185.29	547.62	348.57	109.59	295.48	715.06	-152.89	330.03	623.34	-123.1	274.99	632.02	-140.58	205.55	418.34	-108.15	168.06	313.95	-44.782	85.915	275	-98.613	98.29	263.74	-40.345	256.25	550.54	-125.17	470.48	933.48	-248.88	476.53	688.05	182.5	-7.1783	19.641	-1.1152	33.621	210.23	-34.247	439.76	1162.4	20.373	551.14	262.04	100.36	293.79	1496.8	-67.723	254.78	762.04	330.61	552.98	177.04	88.165	613.63	25.938	108.1	288.64	879.44	317.57	474.8	439.58	23.454	695.28	42.713	52.461	429.38	661.51	208.54	403.06	741.13	233.68	510.28	451.18	145.47	644.57	41.178	24.847	508.14	255.97	143.34	354.01	1021.9	-245.27	517.84	85.242	21.352	542.45	843.94	-222.35	193.46	413.62	23.905	224.71	1178.7	18.765	279.63	1003	275.59	218.84	938.73	-4.0867	-46.276	48.212	19.385	223.53	1262.8	86.718	-134.05	203.78	-38.418	291.93	1509	74.575	-63.423	178.28	2.5296	232.64	940.35	95.491	261.68	992.73	200.27	509.23	61.484	100.95	458.69	35.207	57.181	293.84	1390.9	11.824	-67.126	52.26	-60.614	335.24	992.4	-177.54	-84.605	173.36	-76.51
312	1.56	439.64	1570.9	-44.242	436.99	1575.4	55.204	419.27	1296	12.555	391.99	875.84	-99.666	419.28	901.94	145.15	347.23	1328	178.65	324.85	1162.1	239.29	328.51	752.41	304.16	291.54	693.26	351.64	343.15	1344.8	-136.35	350.46	1175.9	-206.63	588.83	895.67	-213.39	626.71	832.47	-239.21	463.83	584.92	185.72	553.64	347.84	109.13	306.02	713.91	-152.29	341.99	622.7	-122.58	286.88	630.5	-140.18	220.67	416.05	-108.42	181.31	312.63	-45.017	98.543	275.41	-99.162	110.37	264.04	-40.823	269.52	548.68	-125.11	475.3	931.62	-248.29	484.43	688.54	183.62	-3.1695	19.514	-2.5464	44.454	211.98	-34.946	448.37	1162.5	20.796	555.68	261.23	99.96	301.98	1496.7	-67.142	265.49	761.89	331.1	555.98	176.17	87.8	614.18	25.021	108.26	298.93	879.34	317.97	481.45	440.32	23.864	696.23	39.783	51.745	437.04	661.99	209.09	410.63	741.51	234.4	518.12	451.53	145.39	645.12	39.217	24.366	513.11	255.89	143.5	359.94	1021.5	-244.13	518.78	85	21.295	546.16	841.12	-222.02	208.76	411.05	23.764	233.13	1179.1	19.143	289.35	1003	276.21	227.12	938.54	-4.5687	-40.273	51.184	17.764	232.24	1263.1	87.396	-122.94	210.22	-40.034	300.29	1509	75.161	-53.497	182.27	1.3056	240.72	940.7	95.107	271.09	992.76	200.84	510.32	61.377	101.05	459.07	35.771	57.456	302.5	1391.2	12.346	-60.666	56.192	-61.911	341.43	992.42	-176.27	-74.379	177.96	-77.8
313	1.565	447.64	1571.3	-43.856	445.09	1575.9	55.589	427.88	1296.2	12.834	400.43	875.6	-98.866	427.41	902.97	145.66	356.28	1328.1	179.04	334.43	1162.2	239.68	339.22	752.48	304.21	302.72	693.22	351.87	351.62	1345	-136.05	357.6	1175.8	-205.93	593.07	892.18	-213.46	629.74	828.46	-239.61	471.34	585.42	186.23	559.36	347.07	108.79	316.6	712.85	-151.72	354.02	622.21	-122.06	298.85	629.09	-139.8	236.03	413.88	-108.64	194.86	311.5	-45.144	111.57	275.88	-99.615	122.82	264.5	-41.181	282.92	546.93	-125.07	479.92	929.75	-247.68	492.15	688.99	184.86	1.757	19.549	-4.2647	55.738	213.84	-35.521	456.89	1162.7	21.143	559.94	260.41	99.644	310.18	1496.7	-66.573	276.36	761.79	331.57	558.74	175.33	87.497	614.63	24.317	108.48	309.33	879.3	318.33	487.98	441.03	24.317	697.01	37.28	51.179	444.49	662.44	209.71	417.98	741.87	235.17	525.67	451.78	145.38	645.56	37.588	23.995	517.76	255.77	143.68	365.77	1021.2	-242.98	519.57	84.826	21.284	549.55	838.25	-221.67	224.22	408.71	23.701	241.49	1179.5	19.487	299.13	1003	276.83	235.32	938.41	-5.0638	-33.314	54.267	16.018	240.9	1263.5	88.039	-111.35	216.48	-41.437	308.63	1509	75.744	-43.024	186.29	0.23083	248.7	941.07	94.692	280.51	992.86	201.4	511.25	61.294	101.18	459.38	36.259	57.731	311.13	1391.5	12.815	-53.353	60.313	-63.294	347.48	992.55	-174.98	-63.623	182.56	-78.951
314	1.57	455.63	1571.9	-43.46	453.19	1576.3	55.985	436.45	1296.5	13.064	408.77	875.47	-98.09	435.47	904.05	146.21	365.3	1328.3	179.39	344.02	1162.3	240.02	350.07	752.63	304.19	314.11	693.25	352.06	360.05	1345.3	-135.77	364.77	1175.8	-205.24	597.04	888.59	-213.51	632.41	824.35	-240.01	478.63	585.88	186.8	564.75	346.27	108.58	327.22	711.91	-151.19	366.1	621.88	-121.54	310.88	627.79	-139.44	251.57	411.86	-108.82	208.69	310.58	-45.171	124.96	276.43	-99.969	135.62	265.1	-41.423	296.42	545.33	-125.04	484.33	927.9	-247.05	499.7	689.38	186.18	7.6917	19.779	-6.2596	67.466	215.79	-35.969	465.3	1162.9	21.406	563.92	259.59	99.421	318.38	1496.7	-66.019	287.39	761.74	331.99	561.27	174.51	87.256	614.99	23.795	108.75	319.85	879.31	318.65	494.4	441.67	24.804	697.64	35.178	50.745	451.74	662.86	210.37	425.15	742.2	235.95	532.86	451.91	145.45	645.89	36.262	23.719	522.07	255.61	143.9	371.51	1021.1	-241.82	520.22	84.709	21.312	552.64	835.34	-221.29	239.79	406.63	23.712	249.78	1180	19.801	308.94	1003.1	277.43	243.45	938.34	-5.5578	-25.352	57.416	14.165	249.51	1264	88.645	-99.325	222.51	-42.599	316.97	1509	76.32	-32.009	190.31	-0.68358	256.59	941.45	94.258	289.95	993.02	201.93	512.04	61.227	101.35	459.62	36.67	58	319.71	1391.9	13.231	-45.147	64.568	-64.752	353.4	992.78	-173.68	-52.347	187.13	-79.953
315	1.575	463.63	1572.4	-43.052	461.28	1576.8	56.392	444.95	1296.8	13.244	417.03	875.44	-97.344	443.47	905.18	146.8	374.29	1328.6	179.69	353.6	1162.5	240.31	361.07	752.85	304.11	325.68	693.34	352.19	368.44	1345.6	-135.53	371.95	1175.9	-204.56	600.75	884.91	-213.54	634.73	820.14	-240.39	485.67	586.28	187.41	569.8	345.45	108.5	337.86	711.09	-150.69	378.23	621.73	-121.03	322.96	626.63	-139.1	267.28	410.03	-108.95	222.8	309.86	-45.109	138.69	277.06	-100.23	148.78	265.84	-41.558	309.99	543.89	-125.01	488.56	926.07	-246.4	507.06	689.69	187.55	14.714	20.231	-8.5039	79.632	217.81	-36.296	473.63	1163.1	21.581	567.61	258.77	99.293	326.57	1496.9	-65.487	298.58	761.75	332.38	563.57	173.71	87.078	615.27	23.424	109.05	330.47	879.39	318.93	500.72	442.23	25.317	698.12	33.448	50.425	458.8	663.25	211.05	432.15	742.51	236.73	539.65	451.91	145.61	646.12	35.207	23.523	526.04	255.41	144.14	377.16	1021	-240.65	520.75	84.641	21.374	555.42	832.42	-220.87	255.43	404.82	23.785	258.01	1180.6	20.086	318.8	1003.3	278.01	251.5	938.35	-6.0366	-16.358	60.584	12.227	258.06	1264.6	89.211	-86.897	228.24	-43.506	325.3	1509.1	76.885	-20.458	194.28	-1.4314	264.42	941.86	93.82	299.4	993.25	202.44	512.69	61.171	101.54	459.8	37.004	58.263	328.25	1392.4	13.598	-36.016	68.898	-66.273	359.21	993.11	-172.37	-40.565	191.64	-80.8
316	1.58	471.64	1573.1	-42.637	469.38	1577.4	56.808	453.4	1297.2	13.372	425.2	875.53	-96.635	451.41	906.36	147.44	383.24	1328.9	179.94	363.17	1162.7	240.56	372.21	753.15	303.97	337.44	693.5	352.27	376.76	1346	-135.32	379.14	1176	-203.89	604.2	881.17	-213.55	636.71	815.86	-240.75	492.45	586.62	188.04	574.51	344.62	108.55	348.51	710.41	-150.23	390.38	621.78	-120.52	335.07	625.64	-138.79	283.11	408.42	-109.05	237.16	309.37	-44.972	152.73	277.78	-100.4	162.27	266.72	-41.596	323.62	542.65	-124.99	492.59	924.26	-245.74	514.24	689.92	188.93	22.884	20.916	-10.953	92.228	219.87	-36.508	481.86	1163.4	21.664	571.02	257.95	99.262	334.77	1497.1	-64.979	309.92	761.8	332.73	565.66	172.95	86.966	615.47	23.177	109.36	341.18	879.53	319.16	506.93	442.69	25.85	698.49	32.054	50.205	465.65	663.6	211.75	439.01	742.82	237.48	546	451.78	145.87	646.28	34.39	23.395	529.65	255.18	144.4	382.73	1021	-239.49	521.17	84.613	21.466	557.92	829.5	-220.43	271.11	403.31	23.913	266.18	1181.2	20.346	328.68	1003.5	278.58	259.49	938.46	-6.4869	-6.3231	63.725	10.232	266.55	1265.2	89.738	-74.095	233.63	-44.149	333.61	1509.2	77.436	-8.3766	198.18	-2.0117	272.2	942.31	93.392	308.85	993.52	202.93	513.21	61.123	101.75	459.93	37.268	58.516	336.74	1392.9	13.919	-25.942	73.241	-67.843	364.93	993.54	-171.06	-28.29	196.03	-81.491
317	1.585	479.65	1573.8	-42.215	477.47	1578	57.231	461.78	1297.6	13.446	433.3	875.73	-95.969	459.31	907.57	148.1	392.14	1329.3	180.15	372.7	1163.1	240.75	383.48	753.52	303.76	349.38	693.73	352.3	385	1346.5	-135.15	386.33	1176.2	-203.23	607.39	877.37	-213.54	638.36	811.53	-241.08	498.96	586.9	188.68	578.88	343.77	108.72	359.16	709.9	-149.8	402.55	622.04	-120.04	347.19	624.83	-138.5	299.06	407.05	-109.11	251.76	309.09	-44.775	167.06	278.6	-100.48	176.08	267.72	-41.552	337.28	541.61	-124.96	496.44	922.48	-245.06	521.23	690.06	190.29	32.241	21.83	-13.551	105.24	221.97	-36.616	490	1163.7	21.656	574.15	257.15	99.327	342.95	1497.4	-64.499	321.41	761.9	333.04	567.53	172.23	86.919	615.62	23.026	109.67	351.98	879.72	319.34	512.99	443.03	26.396	698.75	30.959	50.075	472.32	663.92	212.44	445.74	743.12	238.2	551.89	451.52	146.23	646.36	33.778	23.325	532.94	254.92	144.68	388.23	1021.1	-238.32	521.49	84.616	21.58	560.14	826.59	-219.95	286.81	402.11	24.086	274.3	1181.9	20.582	338.58	1003.8	279.12	267.43	938.66	-6.8966	4.7453	66.794	8.2092	274.99	1265.9	90.227	-60.948	238.62	-44.533	341.9	1509.5	77.972	4.2254	201.93	-2.4292	279.93	942.8	92.986	318.29	993.84	203.41	513.63	61.08	101.97	460	37.467	58.759	345.16	1393.6	14.199	-14.915	77.535	-69.441	370.57	994.07	-169.75	-15.538	200.27	-82.028
